<?xml version="1.0" encoding="UTF-8"?>
<svg xmlns="http://www.w3.org/2000/svg" xmlns:xlink="http://www.w3.org/1999/xlink" width="240pt" height="240pt" viewBox="0 0 240 240" version="1.1">
<g id="surface1">
<path style=" stroke:none;fill-rule:nonzero;fill:rgb(33.72549%,23.921569%,48.627451%);fill-opacity:1;" d="M 0 209.054688 C 0 226.148438 13.855469 240 30.945312 240 L 209.054688 240 C 226.148438 240 240 226.144531 240 209.054688 L 240 30.945312 C 240 13.851562 226.144531 0 209.054688 0 L 30.945312 0 C 13.851562 0 0 13.855469 0 30.945312 Z M 0 209.054688 "/>
<path style=" stroke:none;fill-rule:nonzero;fill:rgb(100%,100%,100%);fill-opacity:1;" d="M 99.523438 106.160156 L 99.523438 72.171875 L 129.441406 72.171875 C 132.289062 72.171875 135.035156 72.410156 137.683594 72.886719 C 140.328125 73.359375 142.667969 74.207031 144.703125 75.429688 C 146.738281 76.652344 148.367188 78.347656 149.589844 80.515625 C 150.808594 82.6875 151.421875 85.46875 151.421875 88.859375 C 151.421875 94.96875 149.589844 99.375 145.925781 102.089844 C 142.261719 104.804688 137.582031 106.160156 131.882812 106.160156 Z M 67.570312 47.34375 L 67.570312 192.65625 L 137.988281 192.65625 C 144.5 192.65625 150.84375 191.84375 157.015625 190.214844 C 163.191406 188.585938 168.683594 186.074219 173.503906 182.683594 C 178.316406 179.292969 182.152344 174.914062 185 169.558594 C 187.851562 164.199219 189.273438 157.855469 189.273438 150.527344 C 189.273438 141.4375 187.070312 133.667969 182.660156 127.226562 C 178.25 120.78125 171.566406 116.269531 162.613281 113.691406 C 169.125 110.570312 174.046875 106.566406 177.371094 101.683594 C 180.691406 96.796875 182.355469 90.695312 182.355469 83.367188 C 182.355469 76.582031 181.234375 70.882812 178.996094 66.269531 C 176.757812 61.660156 173.601562 57.960938 169.53125 55.179688 C 165.464844 52.398438 160.578125 50.394531 154.878906 49.175781 C 149.179688 47.953125 142.871094 47.34375 135.953125 47.34375 Z M 99.523438 167.828125 L 99.523438 127.9375 L 134.324219 127.9375 C 141.242188 127.9375 146.808594 129.53125 151.011719 132.71875 C 155.21875 135.910156 157.324219 141.234375 157.324219 148.695312 C 157.324219 152.496094 156.679688 155.617188 155.390625 158.058594 C 154.101562 160.5 152.371094 162.433594 150.199219 163.859375 C 148.027344 165.28125 145.519531 166.300781 142.667969 166.910156 C 139.820312 167.519531 136.835938 167.828125 133.714844 167.828125 Z M 99.523438 167.828125 "/>
</g>
</svg>
