<svg width="250" height="250" xmlns="http://www.w3.org/2000/svg">

 <g>
  <title>background</title>
  <rect fill="none" id="canvas_background" height="602" width="802" y="-1" x="-1"/>
 </g>
 <g>
  <title>Layer 1</title>
  <g id="surface1">
   <path id="svg_1" fill-rule="nonzero" fill="rgb(0.784314%,46.666667%,74.117647%)" d="m234.04296,0.04296l-218.08592,0l19.24259,223.60861l89.80037,26.30544l89.80037,-26.30544l19.24259,-223.60861zm0,0"/>
   <path id="svg_2" fill-rule="nonzero" fill="rgb(1.176471%,60.784314%,89.803922%)" d="m125,19.77328l0,209.78259l71.83741,-21.03252l16.0387,-188.75007l-87.87611,0zm0,0"/>
   <path id="svg_3" fill-rule="nonzero" fill="rgb(100%,100%,100%)" d="m183.38203,52.65385l-58.38203,0l0,26.31038l31.41834,0l-1.90021,26.30544l-29.51814,0l0,26.30544l28.20964,0l-1.90021,29.59548l-26.30943,9.19433l0,27.65204l50.66094,-17.11605l4.51238,-75.63124l3.2087,-52.61582zm0,0"/>
   <path id="svg_4" fill-rule="nonzero" fill="rgb(93.333333%,93.333333%,93.333333%)" d="m125,52.65385l0,26.31038l-57.07353,0l-1.92907,-26.31038l59.0026,0zm-29.51814,52.61582l1.3085,26.30544l28.20964,0l0,-26.30544l-29.51814,0zm2.58332,39.46063l-25.65518,0l1.92426,36.1706l50.66574,17.11605l0,-27.65204l-26.30943,-9.19433l-0.62538,-16.44029zm0,0"/>
  </g>
 </g>
</svg>