<?xml version="1.0" encoding="UTF-8"?>
<svg xmlns="http://www.w3.org/2000/svg" xmlns:xlink="http://www.w3.org/1999/xlink" width="250pt" height="250pt" viewBox="0 0 250 250" version="1.1">
<g id="surface1">
<path style=" stroke:none;fill-rule:nonzero;fill:rgb(95.686275%,31.764706%,11.764706%);fill-opacity:1;" d="M 219.792969 115.113281 L 134.878906 30.207031 C 132.28125 27.605469 128.644531 26.042969 125 26.042969 C 121.355469 26.042969 117.71875 27.605469 115.113281 30.207031 L 96.886719 48.4375 L 118.222656 69.78125 C 120.324219 68.746094 122.394531 68.238281 125 68.238281 C 133.855469 68.238281 140.625 74.988281 140.625 83.863281 C 140.625 86.46875 140.09375 88.542969 139.0625 90.613281 L 159.894531 111.449219 C 161.988281 110.410156 164.0625 109.90625 166.667969 109.90625 C 175.519531 109.90625 182.292969 116.65625 182.292969 125.53125 C 182.292969 134.378906 175.519531 141.15625 166.667969 141.15625 C 157.8125 141.15625 151.042969 134.378906 151.042969 125.53125 C 151.042969 122.925781 151.574219 120.828125 152.605469 118.753906 L 131.769531 97.921875 C 131.25 97.921875 130.738281 98.425781 130.207031 98.425781 L 130.207031 152.609375 C 136.457031 154.683594 140.625 160.421875 140.625 167.191406 C 140.625 176.046875 133.855469 182.816406 125 182.816406 C 116.144531 182.816406 109.375 176.046875 109.375 167.191406 C 109.375 160.421875 113.542969 154.683594 119.792969 152.609375 L 119.792969 97.917969 C 113.542969 95.816406 109.375 90.105469 109.375 83.328125 C 109.375 80.722656 109.90625 78.652344 110.9375 76.558594 L 89.582031 55.214844 L 30.207031 115.109375 C 27.605469 117.71875 26.042969 121.355469 26.042969 125 C 26.042969 128.644531 27.605469 132.28125 30.207031 134.886719 L 115.121094 219.792969 C 117.722656 222.394531 121.363281 223.964844 125.003906 223.964844 C 128.652344 223.964844 132.285156 222.402344 134.890625 219.796875 L 219.792969 134.878906 C 222.394531 132.277344 223.964844 128.636719 223.964844 124.996094 C 223.964844 121.347656 222.402344 117.714844 219.796875 115.109375 Z M 219.792969 115.113281 "/>
</g>
</svg>
