<?xml version="1.0" encoding="UTF-8"?>
<svg xmlns="http://www.w3.org/2000/svg" xmlns:xlink="http://www.w3.org/1999/xlink" width="250pt" height="250pt" viewBox="0 0 250 250" version="1.1">
<g id="surface1">
<path style=" stroke:none;fill-rule:nonzero;fill:rgb(89.019608%,30.980392%,14.901961%);fill-opacity:1;" d="M 34.667969 224.609375 L 14.648438 0 L 234.863281 0 L 214.84375 224.609375 L 124.511719 250 "/>
<path style=" stroke:none;fill-rule:nonzero;fill:rgb(93.72549%,39.607843%,16.470588%);fill-opacity:1;" d="M 125 230.46875 L 197.753906 210.449219 L 214.84375 18.066406 L 125 18.066406 "/>
<path style=" stroke:none;fill-rule:nonzero;fill:rgb(92.156863%,92.156863%,92.156863%);fill-opacity:1;" d="M 125 101.5625 L 88.378906 101.5625 L 85.9375 73.242188 L 125 73.242188 L 125 45.898438 L 55.664062 45.898438 L 62.988281 129.394531 L 125 129.394531 Z M 124.511719 173.339844 L 93.75 165.039062 L 91.796875 143.066406 L 64.453125 143.066406 L 67.871094 186.523438 L 124.511719 202.148438 Z M 124.511719 173.339844 "/>
<path style=" stroke:none;fill-rule:nonzero;fill:rgb(100%,100%,100%);fill-opacity:1;" d="M 124.511719 101.5625 L 124.511719 129.394531 L 158.691406 129.394531 L 155.273438 165.039062 L 124.511719 173.339844 L 124.511719 202.148438 L 181.152344 186.523438 L 188.964844 101.5625 Z M 124.511719 45.898438 L 124.511719 73.242188 L 191.40625 73.242188 L 193.847656 45.898438 Z M 124.511719 45.898438 "/>
</g>
</svg>
