<?xml version="1.0" encoding="UTF-8"?>
<svg xmlns="http://www.w3.org/2000/svg" xmlns:xlink="http://www.w3.org/1999/xlink" width="250pt" height="250pt" viewBox="0 0 250 250" version="1.1">
<g id="surface1">
<path style=" stroke:none;fill-rule:evenodd;fill:rgb(58.039216%,47.45098%,36.470588%);fill-opacity:1;" d="M 170.429688 195.585938 C 170.757812 194.949219 171.074219 194.390625 171.34375 193.808594 C 171.515625 193.4375 171.773438 193.363281 172.144531 193.371094 C 174.355469 193.433594 176.570312 193.503906 178.785156 193.523438 C 180.664062 193.546875 182.550781 193.507812 184.433594 193.488281 C 186.554688 193.460938 188.675781 193.351562 190.796875 193.410156 C 193.617188 193.492188 196.367188 194.046875 198.921875 195.300781 C 201.96875 196.804688 204.273438 199.089844 205.847656 202.105469 C 206.851562 204.03125 207.433594 206.070312 207.664062 208.238281 C 208 211.378906 207.78125 214.445312 206.785156 217.453125 C 205.550781 221.171875 203.207031 224.023438 199.953125 226.15625 C 197.445312 227.800781 194.695312 228.769531 191.75 229.324219 C 188.632812 229.914062 185.507812 229.722656 182.382812 229.734375 C 178.953125 229.75 175.523438 229.671875 172.09375 229.632812 C 171.492188 229.628906 171.410156 229.515625 171.566406 228.945312 L 171.714844 228.414062 C 172.046875 227.367188 172.226562 227.320312 173.292969 227.140625 C 174.03125 227.023438 174.796875 226.746094 175.417969 226.335938 C 175.777344 226.097656 175.925781 225.476562 176.066406 225 C 176.1875 224.578125 176.191406 224.121094 176.195312 223.679688 C 176.246094 216.992188 176.296875 210.304688 176.320312 203.617188 C 176.328125 201.929688 176.289062 200.234375 176.195312 198.546875 C 176.128906 197.363281 175.5 196.554688 174.09375 196.277344 C 173 196.058594 171.898438 195.890625 170.796875 195.699219 L 170.429688 195.582031 Z M 201.828125 211.78125 C 201.679688 210.449219 201.605469 209.105469 201.367188 207.792969 C 200.796875 204.640625 199.417969 201.898438 196.996094 199.746094 C 193.082031 196.273438 188.367188 195.738281 183.425781 196.152344 C 182.300781 196.246094 182.058594 196.632812 182.039062 197.789062 C 182.011719 199.429688 181.984375 201.070312 181.984375 202.707031 C 181.976562 207.914062 181.976562 213.117188 181.984375 218.320312 C 181.984375 219.796875 182 221.28125 182.042969 222.757812 C 182.089844 224.265625 182.640625 225.546875 184.121094 226.132812 C 186.453125 227.054688 188.910156 227.164062 191.359375 226.789062 C 195.269531 226.1875 198.007812 223.910156 199.84375 220.492188 C 201.296875 217.78125 201.707031 214.824219 201.828125 211.78125 Z M 211.335938 229.5 C 211.289062 228.6875 211.621094 228.015625 212.03125 227.402344 C 212.140625 227.238281 212.523438 227.242188 212.789062 227.191406 L 215.027344 226.75 C 215.820312 226.578125 216.234375 226.046875 216.34375 225.273438 C 216.421875 224.761719 216.492188 224.242188 216.496094 223.726562 C 216.546875 219.632812 216.59375 215.535156 216.609375 211.4375 C 216.632812 207.339844 216.617188 203.234375 216.617188 199.136719 L 216.597656 198.351562 C 216.515625 197.035156 215.878906 196.351562 214.570312 196.15625 L 211.734375 195.726562 C 211.382812 195.679688 211.257812 195.511719 211.382812 195.199219 C 211.601562 194.671875 211.8125 194.121094 212.121094 193.644531 C 212.234375 193.46875 212.625 193.398438 212.886719 193.40625 C 214.242188 193.425781 215.597656 193.527344 216.953125 193.527344 L 228.75 193.453125 C 231.023438 193.453125 233.21875 193.851562 235.257812 194.9375 C 237.503906 196.132812 238.757812 197.984375 239.117188 200.503906 C 239.492188 203.148438 238.691406 205.378906 236.757812 207.148438 C 235.960938 207.882812 234.933594 208.359375 234.011719 208.953125 L 233.710938 209.140625 C 234.566406 209.453125 235.378906 209.726562 236.171875 210.046875 C 238.492188 211 240.339844 212.484375 241.316406 214.859375 C 242.085938 216.734375 242.085938 218.6875 241.628906 220.625 C 240.917969 223.664062 238.917969 225.6875 236.3125 227.21875 C 233.871094 228.652344 231.226562 229.488281 228.410156 229.628906 C 225.8125 229.757812 223.203125 229.710938 220.597656 229.742188 L 219.089844 229.75 C 216.582031 229.691406 214.074219 229.625 211.5625 229.5625 Z M 222.152344 217.605469 L 222.175781 217.605469 C 222.175781 218.890625 222.160156 220.175781 222.183594 221.460938 C 222.199219 222.292969 222.167969 223.148438 222.347656 223.949219 C 222.617188 225.148438 223.164062 226.226562 224.507812 226.570312 C 226.324219 227.039062 228.175781 227.132812 230.011719 226.8125 C 232.3125 226.414062 234.144531 225.257812 235.148438 223.070312 C 235.898438 221.445312 236.007812 219.71875 235.753906 217.957031 C 235.414062 215.636719 234.179688 213.953125 232.132812 212.851562 C 230.789062 212.125 229.355469 211.683594 227.828125 211.625 C 226.117188 211.558594 224.402344 211.554688 222.691406 211.503906 C 222.210938 211.488281 222.144531 211.734375 222.148438 212.128906 C 222.15625 213.953125 222.152344 215.777344 222.152344 217.605469 Z M 225.792969 208.867188 C 226.730469 208.820312 227.789062 208.804688 228.839844 208.699219 C 230.855469 208.5 232.277344 207.484375 233.015625 205.558594 C 233.394531 204.578125 233.378906 203.570312 233.386719 202.554688 C 233.417969 199.902344 231.871094 197.730469 229.351562 196.832031 C 227.40625 196.140625 225.40625 196.128906 223.390625 196.183594 C 222.574219 196.203125 222.207031 196.5625 222.195312 197.382812 L 222.074219 208.105469 C 222.070312 208.53125 222.25 208.714844 222.667969 208.726562 Z M 225.792969 208.867188 "/>
<path style=" stroke:none;fill-rule:evenodd;fill:rgb(31.372549%,21.960784%,16.862745%);fill-opacity:1;" d="M 20.59375 227.4375 L 20.449219 229.28125 C 19.121094 229.28125 17.894531 229.273438 16.671875 229.285156 C 14.363281 229.308594 12.058594 229.347656 9.75 229.378906 L 9.527344 229.394531 C 9.195312 229.355469 8.597656 229.355469 8.582031 229.257812 C 8.484375 228.707031 8.515625 228.132812 8.539062 227.5625 C 8.542969 227.5 8.765625 227.417969 8.898438 227.386719 L 10.695312 226.984375 C 11.8125 226.695312 12.207031 226.210938 12.257812 225.054688 C 12.320312 223.753906 12.378906 222.449219 12.386719 221.144531 C 12.40625 217.9375 12.382812 214.734375 12.398438 211.527344 C 12.398438 210.777344 12.140625 210.21875 11.441406 209.914062 C 10.609375 209.546875 9.773438 209.1875 8.929688 208.847656 C 8.53125 208.6875 8.015625 208.601562 8.0625 208.066406 C 8.109375 207.519531 8.609375 207.378906 9.082031 207.269531 C 11.039062 206.824219 13 206.386719 14.949219 205.910156 C 15.578125 205.757812 16.179688 205.496094 16.933594 205.234375 C 16.972656 205.640625 17.046875 206.027344 17.039062 206.414062 L 16.921875 208.253906 C 16.921875 208.460938 17.027344 208.738281 17.179688 208.851562 C 17.273438 208.925781 17.589844 208.792969 17.746094 208.671875 C 19.414062 207.402344 21.179688 206.308594 23.195312 205.667969 C 26.3125 204.679688 28.992188 205.597656 30.867188 208.285156 C 31.527344 209.234375 31.527344 209.234375 32.445312 208.570312 C 34.015625 207.429688 35.660156 206.421875 37.5 205.757812 C 41.539062 204.296875 45.421875 206.148438 46.824219 210.21875 C 47.335938 211.695312 47.53125 213.21875 47.527344 214.777344 L 47.492188 225.125 C 47.488281 225.980469 47.773438 226.464844 48.585938 226.730469 C 49.496094 227.03125 50.441406 227.234375 51.46875 227.503906 L 51.230469 229.285156 C 50.0625 229.285156 48.988281 229.277344 47.914062 229.285156 C 45.289062 229.308594 42.664062 229.324219 40.039062 229.382812 C 39.582031 229.394531 39.464844 229.28125 39.441406 228.855469 C 39.363281 227.484375 39.351562 227.488281 40.640625 227.179688 L 41.078125 227.066406 C 42.335938 226.722656 42.757812 226.335938 42.765625 225.058594 C 42.792969 221.390625 42.871094 217.714844 42.683594 214.054688 C 42.492188 210.257812 39.476562 208.234375 35.796875 209.207031 C 34.597656 209.523438 33.507812 210.078125 32.496094 210.796875 C 32.15625 211.042969 32.089844 211.324219 32.117188 211.75 C 32.222656 213.367188 32.285156 214.988281 32.300781 216.605469 C 32.324219 219.441406 32.289062 222.273438 32.300781 225.109375 C 32.304688 226.257812 32.695312 226.699219 33.832031 226.964844 L 35.515625 227.351562 L 35.828125 227.421875 C 35.851562 227.960938 35.875 228.5 35.847656 229.039062 C 35.832031 229.378906 35.570312 229.40625 35.277344 229.402344 C 33.640625 229.359375 32 229.304688 30.359375 229.308594 C 28.367188 229.3125 26.375 229.371094 24.382812 229.40625 L 23.914062 229.40625 C 23.914062 228.832031 23.886719 228.285156 23.933594 227.742188 C 23.941406 227.609375 24.171875 227.425781 24.332031 227.386719 L 26.296875 226.96875 C 27.128906 226.765625 27.527344 226.335938 27.574219 225.488281 C 27.796875 221.5625 27.957031 217.636719 27.589844 213.710938 C 27.515625 212.949219 27.269531 212.175781 26.953125 211.476562 C 25.945312 209.253906 23.683594 208.324219 21.070312 208.992188 C 19.832031 209.308594 18.710938 209.878906 17.652344 210.59375 C 17.152344 210.933594 16.914062 211.382812 16.914062 211.953125 C 16.914062 215.867188 16.929688 219.785156 16.941406 223.699219 L 16.960938 225.207031 C 16.984375 226.261719 17.433594 226.816406 18.476562 227.042969 C 19.148438 227.195312 19.828125 227.296875 20.589844 227.4375 Z M 20.59375 227.4375 "/>
<path style=" stroke:none;fill-rule:evenodd;fill:rgb(30.980392%,21.960784%,16.862745%);fill-opacity:1;" d="M 138.671875 205.632812 C 138.976562 207.109375 138.96875 208.429688 137.890625 209.4375 C 136.8125 210.433594 135.457031 210.097656 134.128906 209.875 C 134.253906 210.574219 134.390625 211.167969 134.457031 211.769531 C 134.9375 216.238281 133.015625 219.558594 128.867188 221.453125 C 127.300781 222.167969 125.640625 222.433594 123.941406 222.570312 C 123.097656 222.640625 122.359375 223.28125 122.28125 223.976562 C 122.199219 224.679688 122.640625 225.402344 123.523438 225.613281 C 124.5625 225.859375 125.648438 225.929688 126.71875 226.054688 C 129.011719 226.316406 131.328125 226.433594 133.59375 226.84375 C 137.019531 227.460938 138.933594 230.453125 138.328125 233.894531 C 137.789062 236.957031 136.015625 239.183594 133.546875 240.894531 C 129.378906 243.78125 124.808594 244.625 119.941406 243.152344 C 117.160156 242.308594 115.195312 240.476562 114.519531 237.515625 C 114.179688 236.035156 114.539062 234.691406 115.65625 233.6875 C 116.980469 232.496094 118.425781 231.433594 119.8125 230.308594 L 120.261719 229.855469 L 119.746094 229.496094 C 118.328125 228.824219 117.195312 227.902344 116.757812 226.304688 C 116.609375 225.765625 116.765625 225.410156 117.222656 225.132812 C 118.003906 224.660156 118.78125 224.183594 119.554688 223.695312 C 119.914062 223.46875 120.273438 223.234375 120.613281 222.972656 C 121.074219 222.621094 121.03125 222.359375 120.484375 222.15625 C 119.203125 221.683594 118.0625 221 117.179688 219.945312 C 115.703125 218.183594 115.285156 216.089844 115.40625 213.875 C 115.597656 210.417969 117.476562 208.140625 120.523438 206.675781 C 124.152344 204.9375 127.789062 204.828125 131.488281 206.414062 C 132.855469 207 134.296875 207.125 135.765625 207.023438 C 136.859375 206.945312 137.816406 206.53125 138.671875 205.632812 Z M 125.308594 230.402344 C 122.585938 230.378906 121.734375 230.714844 120.132812 232.339844 C 118.34375 234.164062 118.355469 236.695312 120.140625 238.527344 C 121.496094 239.914062 123.1875 240.566406 125.070312 240.761719 C 127.265625 240.988281 129.429688 240.898438 131.425781 239.796875 C 133.554688 238.617188 134.613281 236.429688 134.132812 234.226562 C 133.738281 232.410156 132.398438 231.578125 130.765625 231.101562 C 128.910156 230.554688 126.992188 230.453125 125.308594 230.402344 Z M 119.960938 213.003906 C 120.0625 213.757812 120.101562 214.523438 120.269531 215.265625 C 120.703125 217.183594 121.539062 218.867188 123.449219 219.722656 C 125.6875 220.726562 128.546875 220.296875 129.53125 217.152344 C 130.203125 215 130.121094 212.859375 129.308594 210.757812 C 128.945312 209.820312 128.367188 209.027344 127.53125 208.445312 C 125.585938 207.085938 122.078125 206.90625 120.648438 209.90625 C 120.183594 210.882812 120 211.917969 119.960938 213.003906 Z M 119.960938 213.003906 "/>
<path style=" stroke:none;fill-rule:evenodd;fill:rgb(30.980392%,21.568627%,16.862745%);fill-opacity:1;" d="M 92.480469 205.152344 C 92.550781 205.484375 92.695312 205.863281 92.699219 206.246094 C 92.707031 206.96875 92.628906 207.695312 92.585938 208.421875 L 92.585938 209.046875 L 93.199219 208.578125 C 94.878906 207.199219 96.683594 206.019531 98.785156 205.386719 C 102.578125 204.242188 106.367188 206.320312 107.605469 210.183594 C 108.074219 211.652344 108.257812 213.160156 108.277344 214.695312 C 108.316406 218.105469 108.339844 221.515625 108.375 224.925781 C 108.386719 226.148438 108.527344 226.371094 109.683594 226.722656 C 110.339844 226.921875 111.019531 227.0625 111.695312 227.171875 C 112.070312 227.230469 112.230469 227.375 112.210938 227.742188 L 112.214844 228.078125 C 112.199219 229.488281 112.101562 229.554688 110.734375 229.550781 C 107.457031 229.542969 104.179688 229.5625 100.902344 229.589844 C 99.925781 229.597656 99.925781 229.628906 99.828125 228.664062 L 99.808594 228.109375 C 99.867188 227.277344 99.886719 227.285156 100.707031 227.164062 C 101.257812 227.082031 101.804688 226.953125 102.339844 226.8125 C 102.894531 226.671875 103.160156 226.261719 103.234375 225.714844 C 103.269531 225.4375 103.320312 225.160156 103.316406 224.882812 C 103.269531 221.15625 103.332031 217.425781 103.128906 213.707031 C 102.964844 210.695312 100.667969 208.902344 97.644531 209.109375 C 96.164062 209.210938 94.824219 209.707031 93.601562 210.558594 C 92.792969 211.125 92.632812 211.9375 92.636719 212.816406 C 92.652344 216.300781 92.683594 219.785156 92.722656 223.269531 C 92.730469 224.035156 92.75 224.796875 92.824219 225.554688 C 92.898438 226.382812 93.191406 226.71875 94.003906 226.898438 C 94.78125 227.070312 95.574219 227.167969 96.402344 227.304688 L 96.472656 227.945312 C 96.5 229.441406 96.34375 229.554688 94.894531 229.546875 C 91.503906 229.53125 88.117188 229.554688 84.730469 229.59375 C 84.195312 229.601562 83.96875 229.433594 83.984375 228.914062 L 83.976562 228.6875 C 83.886719 227.34375 83.929688 227.292969 85.203125 227.074219 L 85.804688 226.953125 C 87.179688 226.640625 87.535156 226.277344 87.554688 224.875 C 87.617188 220.4375 87.640625 216.007812 87.6875 211.570312 C 87.691406 210.933594 87.453125 210.4375 86.859375 210.175781 C 86.027344 209.808594 85.1875 209.460938 84.34375 209.113281 C 83.878906 208.921875 83.351562 208.800781 83.332031 208.15625 C 83.320312 207.703125 83.804688 207.304688 84.46875 207.171875 C 85.796875 206.898438 87.140625 206.675781 88.453125 206.34375 C 89.761719 206.019531 91.046875 205.582031 92.480469 205.152344 Z M 92.480469 205.152344 "/>
<path style=" stroke:none;fill-rule:evenodd;fill:rgb(30.980392%,21.960784%,16.862745%);fill-opacity:1;" d="M 165.75 216.738281 C 165.6875 220.882812 164.613281 224.230469 161.683594 226.742188 C 157.972656 229.933594 152.183594 231.015625 147.449219 228.632812 C 145.429688 227.617188 143.945312 226.054688 142.980469 224.03125 C 141.496094 220.914062 141.125 217.640625 141.898438 214.285156 C 142.664062 210.964844 144.675781 208.5625 147.683594 207.003906 C 150.777344 205.40625 154.035156 204.78125 157.46875 205.617188 C 161.816406 206.679688 164.9375 210.222656 165.558594 214.734375 C 165.671875 215.523438 165.714844 216.328125 165.75 216.738281 Z M 160.71875 218.984375 L 160.550781 218.960938 C 160.550781 218.570312 160.570312 218.179688 160.546875 217.789062 C 160.40625 215.359375 159.859375 213.039062 158.445312 211 C 157.109375 209.070312 155.289062 207.933594 152.914062 207.765625 C 150.261719 207.578125 148.03125 209.0625 147.25 211.773438 C 146.070312 215.84375 146.472656 219.8125 148.539062 223.539062 C 149.4375 225.164062 150.773438 226.367188 152.558594 226.996094 C 156.0625 228.230469 159.164062 226.632812 160.078125 223.046875 C 160.414062 221.722656 160.511719 220.335938 160.71875 218.984375 Z M 160.71875 218.984375 "/>
<path style=" stroke:none;fill-rule:evenodd;fill:rgb(30.980392%,21.568627%,16.862745%);fill-opacity:1;" d="M 79.722656 217.058594 C 79.652344 220.03125 78.949219 222.78125 77.117188 225.167969 C 75.148438 227.726562 72.445312 229.09375 69.371094 229.671875 C 65.734375 230.351562 62.320312 229.734375 59.402344 227.292969 C 58.015625 226.132812 57.070312 224.648438 56.445312 222.953125 C 55.417969 220.179688 55.164062 217.339844 55.792969 214.445312 C 56.46875 211.34375 58.21875 208.976562 60.929688 207.382812 C 64.066406 205.550781 67.453125 204.734375 71.066406 205.554688 C 75.714844 206.617188 78.398438 209.648438 79.390625 214.234375 C 79.589844 215.160156 79.617188 216.117188 79.726562 217.058594 Z M 74.632812 219.019531 L 74.5 219 L 74.5 218.441406 C 74.421875 215.714844 73.890625 213.117188 72.261719 210.851562 C 71.058594 209.171875 69.445312 208.117188 67.375 207.820312 C 64.003906 207.339844 61.800781 209.339844 61.070312 212.054688 C 60.117188 215.605469 60.417969 219.109375 61.890625 222.476562 C 62.8125 224.574219 64.265625 226.207031 66.496094 227 C 69.976562 228.238281 73.128906 226.601562 74.011719 223.027344 C 74.335938 221.722656 74.433594 220.359375 74.632812 219.019531 Z M 74.632812 219.019531 "/>
<path style=" stroke:none;fill-rule:evenodd;fill:rgb(26.27451%,60%,20.392157%);fill-opacity:1;" d="M 160.863281 65.515625 C 163.257812 72.441406 164.980469 79.515625 165.550781 86.84375 C 166.253906 95.9375 165.933594 104.96875 164.015625 113.914062 L 163.769531 114.625 C 163.167969 114.628906 162.554688 114.554688 161.964844 114.644531 C 157 115.425781 152.039062 116.234375 147.078125 117.039062 C 141.945312 117.871094 136.8125 118.671875 131.6875 119.554688 C 129.875 119.867188 127.628906 119.496094 126.898438 122.003906 L 126.546875 122.125 L 126.792969 107.128906 L 126.539062 70.945312 L 128.929688 70.535156 C 132.839844 69.894531 136.746094 69.242188 140.660156 68.621094 C 145.328125 67.882812 150 67.160156 154.671875 66.4375 C 156.734375 66.121094 158.800781 65.824219 160.863281 65.515625 Z M 160.863281 65.515625 "/>
<path style=" stroke:none;fill-rule:evenodd;fill:rgb(27.058824%,64.705882%,21.960784%);fill-opacity:1;" d="M 121.613281 165.84375 C 119.089844 163.675781 116.480469 161.601562 114.066406 159.320312 C 101.0625 147.054688 91.546875 132.617188 86.863281 115.207031 C 85.570312 110.417969 84.710938 105.550781 84.433594 100.601562 C 84.238281 97.136719 83.960938 93.640625 84.207031 90.195312 C 84.855469 81.027344 86.183594 71.949219 88.871094 63.121094 L 89.019531 62.914062 C 89.28125 63.261719 89.65625 63.570312 89.789062 63.964844 C 92.414062 71.691406 95.015625 79.425781 97.609375 87.164062 C 105.75 111.484375 113.882812 135.808594 122.039062 160.121094 C 122.199219 160.59375 122.613281 160.984375 122.910156 161.414062 Z M 121.613281 165.84375 "/>
<path style=" stroke:none;fill-rule:evenodd;fill:rgb(27.45098%,62.745098%,21.568627%);fill-opacity:1;" d="M 160.863281 65.515625 C 158.796875 65.820312 156.734375 66.117188 154.671875 66.433594 C 150 67.15625 145.328125 67.878906 140.664062 68.621094 C 136.75 69.242188 132.84375 69.890625 128.929688 70.53125 L 126.539062 70.941406 L 126.523438 69.382812 C 126.441406 68.101562 126.308594 66.820312 126.289062 65.539062 L 126.023438 41.019531 C 125.960938 35.90625 125.867188 30.789062 125.765625 25.675781 C 125.699219 22.5 125.632812 19.320312 125.488281 16.144531 C 125.410156 14.441406 125.132812 12.742188 125.027344 11.039062 C 124.960938 10.058594 125.046875 9.070312 125.070312 8.085938 C 126.289062 10.445312 127.480469 12.824219 128.734375 15.167969 C 130.710938 18.875 133.867188 21.605469 136.707031 24.582031 C 147.929688 36.363281 155.898438 50.050781 160.863281 65.515625 Z M 160.863281 65.515625 "/>
<path style=" stroke:none;fill-rule:evenodd;fill:rgb(25.098039%,58.039216%,20%);fill-opacity:1;" d="M 126.546875 122.125 L 126.898438 122.003906 C 127.632812 119.496094 129.878906 119.871094 131.691406 119.554688 C 136.8125 118.671875 141.945312 117.871094 147.078125 117.039062 C 152.039062 116.234375 157 115.429688 161.96875 114.644531 C 162.554688 114.554688 163.167969 114.628906 163.773438 114.625 C 162.84375 117.9375 162.113281 121.324219 160.9375 124.546875 C 159.597656 128.195312 157.980469 131.765625 156.265625 135.257812 C 153.699219 140.484375 150.5 145.359375 146.785156 149.828125 C 143.921875 153.265625 140.730469 156.453125 137.535156 159.59375 C 135.765625 161.332031 133.683594 162.75 131.742188 164.3125 L 131.238281 163.96875 L 129.425781 162.417969 L 127.554688 158.308594 C 126.261719 153.5 125.585938 148.605469 125.472656 143.628906 L 125.507812 142.792969 L 125.765625 139.171875 C 125.847656 137.9375 125.960938 136.703125 126.015625 135.46875 C 126.203125 131.023438 126.371094 126.570312 126.546875 122.121094 Z M 126.546875 122.125 "/>
<path style=" stroke:none;fill-rule:evenodd;fill:rgb(30.980392%,66.666667%,25.490196%);fill-opacity:1;" d="M 126.546875 122.125 C 126.371094 126.574219 126.203125 131.023438 126.015625 135.472656 C 125.960938 136.710938 125.851562 137.945312 125.765625 139.179688 L 124.625 139.609375 C 122.085938 132.148438 119.550781 124.765625 117.070312 117.359375 C 112.96875 105.113281 108.914062 92.847656 104.816406 80.59375 C 101.511719 70.707031 98.171875 60.828125 94.820312 50.953125 C 94.664062 50.492188 94.210938 50.128906 93.902344 49.722656 L 101.207031 36.289062 C 101.457031 36.726562 101.789062 37.132812 101.945312 37.601562 C 105.324219 47.601562 108.699219 57.605469 112.039062 67.617188 C 116.390625 80.644531 120.714844 93.675781 125.0625 106.707031 C 125.234375 107.226562 125.519531 107.707031 125.796875 108.289062 L 126.796875 107.125 C 126.710938 112.125 126.628906 117.121094 126.546875 122.121094 Z M 126.546875 122.125 "/>
<path style=" stroke:none;fill-rule:evenodd;fill:rgb(29.019608%,65.490196%,23.529412%);fill-opacity:1;" d="M 93.898438 49.722656 C 94.210938 50.128906 94.664062 50.492188 94.820312 50.953125 C 98.171875 60.828125 101.507812 70.707031 104.8125 80.59375 C 108.914062 92.847656 112.964844 105.113281 117.070312 117.359375 C 119.546875 124.765625 122.085938 132.144531 124.621094 139.609375 L 125.761719 139.179688 L 125.507812 142.800781 L 125.273438 143.632812 C 124.875 147.597656 124.542969 151.570312 124.058594 155.523438 C 123.816406 157.507812 123.296875 159.453125 122.90625 161.414062 C 122.609375 160.984375 122.195312 160.59375 122.039062 160.121094 C 113.878906 135.804688 105.75 111.484375 97.605469 87.164062 C 95.015625 79.425781 92.40625 71.691406 89.785156 63.964844 C 89.652344 63.570312 89.277344 63.261719 89.015625 62.914062 Z M 93.898438 49.722656 "/>
<path style=" stroke:none;fill-rule:evenodd;fill:rgb(34.117647%,68.235294%,27.843137%);fill-opacity:1;" d="M 126.792969 107.125 L 125.792969 108.289062 C 125.519531 107.707031 125.234375 107.226562 125.0625 106.707031 C 120.714844 93.675781 116.390625 80.644531 112.039062 67.617188 C 108.695312 57.605469 105.324219 47.601562 101.945312 37.601562 C 101.785156 37.132812 101.457031 36.726562 101.203125 36.289062 L 110.238281 24.40625 C 110.523438 24.785156 110.929688 25.125 111.074219 25.550781 C 113.582031 32.894531 116.066406 40.246094 118.539062 47.601562 C 120.847656 54.472656 123.121094 61.351562 125.457031 68.210938 C 125.613281 68.667969 126.15625 68.992188 126.523438 69.382812 L 126.542969 70.941406 Z M 126.792969 107.125 "/>
<path style=" stroke:none;fill-rule:evenodd;fill:rgb(37.647059%,69.803922%,30.980392%);fill-opacity:1;" d="M 126.523438 69.386719 C 126.15625 68.996094 125.613281 68.671875 125.457031 68.210938 C 123.121094 61.351562 120.847656 54.472656 118.539062 47.601562 C 116.066406 40.246094 113.582031 32.898438 111.074219 25.554688 C 110.925781 25.125 110.519531 24.789062 110.234375 24.410156 C 113.171875 21.53125 116.019531 18.550781 119.074219 15.808594 C 121.792969 13.371094 123.976562 10.757812 124.078125 6.902344 L 124.292969 6.136719 L 125.066406 8.085938 C 125.046875 9.070312 124.957031 10.058594 125.023438 11.039062 C 125.132812 12.742188 125.410156 14.441406 125.484375 16.144531 C 125.628906 19.320312 125.695312 22.5 125.761719 25.675781 C 125.863281 30.789062 125.957031 35.90625 126.019531 41.019531 L 126.289062 65.539062 C 126.308594 66.824219 126.441406 68.105469 126.519531 69.386719 Z M 126.523438 69.386719 "/>
<path style=" stroke:none;fill-rule:evenodd;fill:rgb(66.27451%,66.666667%,53.333333%);fill-opacity:1;" d="M 122.90625 161.410156 C 123.300781 159.449219 123.820312 157.503906 124.0625 155.523438 C 124.546875 151.570312 124.878906 147.59375 125.277344 143.632812 L 125.375 143.617188 L 125.472656 143.632812 C 125.585938 148.609375 126.261719 153.507812 127.554688 158.3125 C 127.289062 158.664062 126.921875 158.96875 126.78125 159.359375 C 125.695312 162.417969 124.671875 165.5 123.582031 168.558594 C 123.433594 168.976562 123.015625 169.304688 122.726562 169.667969 L 121.609375 165.839844 Z M 122.90625 161.410156 "/>
<path style=" stroke:none;fill-rule:evenodd;fill:rgb(71.372549%,70.980392%,59.607843%);fill-opacity:1;" d="M 122.726562 169.671875 C 123.015625 169.304688 123.433594 168.976562 123.582031 168.5625 C 124.671875 165.503906 125.695312 162.417969 126.78125 159.359375 C 126.917969 158.96875 127.289062 158.664062 127.554688 158.316406 L 129.425781 162.425781 C 129.058594 162.949219 128.546875 163.421875 128.339844 164.007812 L 124.753906 174.539062 C 124.605469 174.960938 124.105469 175.257812 123.765625 175.617188 Z M 122.726562 169.671875 "/>
<path style=" stroke:none;fill-rule:evenodd;fill:rgb(76.078431%,75.686275%,65.490196%);fill-opacity:1;" d="M 123.765625 175.617188 C 124.101562 175.257812 124.605469 174.960938 124.753906 174.539062 L 128.339844 164.007812 C 128.542969 163.421875 129.054688 162.945312 129.425781 162.421875 L 131.238281 163.96875 C 130.363281 164.835938 129.875 165.835938 130.167969 167.097656 L 129.617188 168.898438 C 129.367188 169.210938 129.003906 169.480469 128.882812 169.832031 C 127.628906 173.417969 126.4375 177.023438 125.175781 180.609375 C 125.015625 181.0625 124.574219 181.417969 124.261719 181.820312 L 123.765625 175.613281 Z M 123.765625 175.617188 "/>
<path style=" stroke:none;fill-rule:evenodd;fill:rgb(80.784314%,80.392157%,71.764706%);fill-opacity:1;" d="M 124.257812 181.820312 C 124.570312 181.414062 125.015625 181.058594 125.171875 180.605469 C 126.4375 177.023438 127.628906 173.417969 128.882812 169.832031 C 129.003906 169.476562 129.367188 169.210938 129.617188 168.898438 L 128.859375 177.171875 C 128.65625 177.40625 128.359375 177.613281 128.261719 177.882812 L 125.734375 185.125 C 125.558594 185.621094 125.21875 186.0625 124.953125 186.523438 C 124.714844 186.214844 124.292969 185.914062 124.273438 185.597656 C 124.199219 184.34375 124.253906 183.078125 124.257812 181.820312 Z M 124.257812 181.820312 "/>
<path style=" stroke:none;fill-rule:evenodd;fill:rgb(85.882353%,85.490196%,78.039216%);fill-opacity:1;" d="M 124.953125 186.523438 C 125.21875 186.0625 125.558594 185.621094 125.738281 185.128906 L 128.265625 177.886719 C 128.363281 177.613281 128.65625 177.410156 128.859375 177.175781 L 128.878906 182.605469 L 127.0625 187.265625 L 124.957031 186.523438 Z M 124.953125 186.523438 "/>
<path style=" stroke:none;fill-rule:evenodd;fill:rgb(92.156863%,91.372549%,86.27451%);fill-opacity:1;" d="M 127.058594 187.265625 L 128.878906 182.601562 L 129.253906 188.117188 Z M 127.058594 187.265625 "/>
<path style=" stroke:none;fill-rule:evenodd;fill:rgb(80.784314%,80.392157%,71.764706%);fill-opacity:1;" d="M 130.167969 167.097656 C 129.875 165.835938 130.359375 164.835938 131.234375 163.96875 L 131.742188 164.3125 Z M 130.167969 167.097656 "/>
<path style=" stroke:none;fill-rule:evenodd;fill:rgb(30.980392%,66.666667%,25.490196%);fill-opacity:1;" d="M 125.472656 143.636719 L 125.375 143.617188 L 125.277344 143.632812 L 125.507812 142.800781 Z M 125.472656 143.636719 "/>
</g>
</svg>
